<?xml version="1.0" encoding="UTF-8"?>
<!DOCTYPE svg PUBLIC "-//W3C//DTD SVG 1.1//EN" "http://www.w3.org/Graphics/SVG/1.1/DTD/svg11.dtd">
<!-- Creator: CorelDRAW -->
<svg xmlns="http://www.w3.org/2000/svg" xml:space="preserve" width="17.334mm" height="12.5777mm" version="1.1" style="shape-rendering:geometricPrecision; text-rendering:geometricPrecision; image-rendering:optimizeQuality; fill-rule:evenodd; clip-rule:evenodd"
viewBox="0 0 113.68 82.49"
 xmlns:xlink="http://www.w3.org/1999/xlink"
 xmlns:xodm="http://www.corel.com/coreldraw/odm/2003">
 <defs>
  <style type="text/css">
   <![CDATA[
    .fil0 {fill:#FDFDFD}
   ]]>
  </style>
 </defs>
 <g id="Camada_x0020_1">
  <metadata id="CorelCorpID_0Corel-Layer"/>
  <path class="fil0" d="M47.74 74.5c0,-1.56 -0.15,-1.68 0.72,-2.61 0.91,-0.98 2.17,-3.16 3.95,-3.16 1.92,0 3.55,1.62 3.55,3.55 0,0.92 -2.41,6.43 -6.45,4.67 -0.8,-0.34 -1.77,-1.38 -1.77,-2.45zm65.94 -30.15l0 0.74c-0.07,1.14 -0.48,2.24 -1.49,3.28 -0.84,0.87 -1.62,1.35 -2.92,1.74 -1.54,0.46 -6.16,1.97 -7.58,1.97 -2.13,0 -4.49,-1.39 -4.89,-2.92l-1.81 0.27c0.3,2.02 0.45,2.91 -0.59,4.92 -1.33,2.58 -4.08,4.4 -7.14,4.4 -0.49,0 -0.41,-0.2 -1.33,-0.22 0,4.13 -3.9,7.46 -7.99,7.55 0,4.68 -3.62,8.11 -8.22,8.22 0,4.56 -3.91,8.22 -7.11,8.22 -5.21,0 -5.37,-2.22 -6.66,-2.22 -0.94,0 -4.44,3.62 -9.86,-0.13 -1.78,-1.23 -2.06,-2.49 -2.79,-3.87 -0.71,0.17 -2.39,0.67 -3.11,0.67 -2.84,0 -6.66,-2.68 -7.33,-5.55 -2.12,0.49 -3.42,1.25 -6.3,-0.14 -2.82,-1.37 -4.54,-3.75 -4.81,-6.96 -6.39,0 -9.54,-6.14 -7.26,-11.03 0.85,-1.82 0.79,-1.25 1.38,-2.19 0.35,-0.57 0.32,-0.63 0.04,-1.33 -0.19,-0.47 -0.42,-0.82 -0.6,-1.21 -0.31,-0.68 -0.7,-1.87 -0.89,-2.66 -2.7,1.43 -4.62,1.69 -7.37,-0.17 -4.4,-2.98 -7.08,-4.16 -7.06,-8.51 0.01,-1.52 1.01,-2.87 1.71,-3.81 5.96,-8.41 11.89,-16.83 17.83,-25.25 2.37,-3.36 4.54,-7.51 7.96,-8.04 3.34,-0.52 5.77,2.23 8.87,4.31 0.63,0.42 0.92,0.66 1.43,1.23 1.69,1.91 1.57,3.59 1.27,5.61l4.49 -0.15c2.08,-0.11 4.47,0.92 6.35,-0.33 4.7,-3.15 6.47,-1.7 12.47,-1.73 3.92,-0.02 7.85,0.02 11.77,-0 2.04,-0.01 3.55,0.23 5.78,0.23 1.98,-0 3.39,-0.64 5.1,-0.67 0,-2.84 1.76,-4.76 3.8,-5.52 0.99,-0.38 6.37,-2.02 7.3,-2.02 2.61,0 4.29,0.48 5.73,2.93 0.69,1.17 4.9,16.07 5.22,17.2l5.95 20.25c0.32,0.99 0.58,1.99 0.64,2.97zm-72.83 27.93c-2.19,0 -3.78,-0.91 -3.78,-3.33 0,-1.31 0.57,-2.03 1.17,-2.83 0.81,-1.07 2.68,-3.7 3.55,-4.44 3.83,-3.25 7.79,0.91 5.04,5.04 -0.32,0.48 -0.43,0.5 -0.81,0.96 -1.44,1.69 -3.08,4.59 -5.18,4.59zm-14.43 -7.99c0,-1.67 4.11,-6.52 5.27,-8.06 0.91,-1.21 1.81,-2.86 3.81,-2.75 1.29,0.07 4.99,2.04 2.31,5.54l-4.28 5.71c-1.19,1.59 -3.2,4.41 -6.06,1.84 -0.66,-0.59 -1.04,-1.7 -1.04,-2.29zm-5.11 -4.44c-2.4,0 -4.14,-2.68 -1.74,-6.18l3.6 -4.84c1.13,-1.37 3.29,-2 4.94,-0.68 0.59,0.47 0.85,1.04 0.99,1.92 0.28,1.78 -0.56,2.81 -1.51,4.06 -1.98,2.63 -3.43,5.71 -6.28,5.71zm21.76 -29.98c-1.06,0 -1.96,-0.83 -2.09,-1.86 -0.12,-1.03 0.57,-1.87 1.07,-2.7 0.95,-1.58 3.56,-6.36 4.88,-7.34 1.15,-0.86 7.01,-4.5 7.77,-4.67 1.41,-0.31 2.36,0.13 3.68,0.15l12.44 -0.01c3.18,-0 8.8,0.52 11.77,0 0.81,-0.14 3.01,-0.41 3.55,-0.67l8.31 28.55c1.16,4.1 1.8,3.65 -1.43,3.65 -0.45,0 -1.72,-1.07 -2.18,-1.38 -4.88,-3.33 -10.65,-7.77 -15.32,-10.88l-13.02 -9.19c-3.16,-2.19 -2.93,-2.53 -6.57,-2.53 -2.69,0 -4.41,2.46 -6.6,4.28 -1.18,0.98 -4.06,4.6 -6.28,4.6zm-6.66 -2c0,3.17 3,6.44 5.99,6.44 5.38,0 7.21,-3.16 10.93,-6.61 3.23,-2.99 3.18,-2.86 6.07,-0.85 0.92,0.64 1.6,1.12 2.49,1.73 6.04,4.12 13.64,9.96 19.36,13.72 1.38,0.91 8.55,5.68 9.27,7.17 1.21,2.49 -0.9,7.04 -6.51,2.95 -1.44,-1.05 -8.66,-6.57 -9.86,-6.57 -1.05,0 -2.22,0.98 -2.22,2.44 0,1.61 3.27,3.39 4.98,4.57 2.25,1.56 6.97,4.1 3.87,7.38 -2.49,2.63 -4.87,0.17 -7.64,-1.83 -1.28,-0.92 -3.65,-3.01 -5.2,-3.01 -1.42,0 -2,1.08 -2,2.44 0,2.73 7.55,4.2 7.55,8.44 0,2.1 -1.55,3.33 -3.55,3.33 -2.91,0 -4.53,-3.33 -7.33,-3.33 -1.11,0 -2,1.09 -2,2 0,2.94 4.88,2.99 4.88,6 0,2.09 -1.58,3.78 -3.55,3.78 -1.36,0 -1.77,-1.04 -2.89,-1.33 4.41,-6.58 -1.55,-12.43 -5.33,-12.43l-1.33 0c0,-4.22 -3.14,-8.22 -7.33,-8.22l-1.78 0c-0.08,-3.53 -3.44,-6.66 -7.26,-7.18 -1.16,-0.16 -0.65,0.08 -1.84,0.08 -1.11,0 -1.09,-4.86 -6.27,-5.94 -1.85,-0.38 -3.6,-0.07 -5.06,0.61 -1.42,0.66 -2.32,1.85 -3.55,2.67 -0.68,-1.41 -0.9,-3.43 -1.78,-4.44 0.74,-1.1 1.52,-2.05 2.31,-3.24 3.2,-4.85 8.08,-11.23 11.5,-16.25 0.54,-0.8 4.43,-6 4.62,-6.7 1.34,0.03 1.49,0.36 3.2,0.09 1.09,-0.17 2.32,-0.09 3.46,-0.09 -1.74,3.28 -6.22,8.66 -6.22,12.21zm-25.53 14.65c-0.4,0 -6.44,-3.68 -6.44,-4.88 0,-0.58 2.32,-3.61 2.8,-4.31l16.2 -22.87c5.34,-7.38 3.73,-6.92 8.22,-3.81 3.75,2.59 4.43,1.59 -1.18,9.08l-16.18 22.9c-1.09,1.51 -2.34,3.9 -3.42,3.9zm98.36 2c0,1.46 -2.01,1.64 -3.13,1.97 -5.98,1.74 -4.55,3.23 -8.06,-8.98l-6.47 -21.95c-2.74,-9.68 -3.57,-7.42 3.82,-9.76 2.82,-0.89 2.54,0.16 4.15,5.78l9.69 32.94z"/>
 </g>
</svg>
