<?xml version="1.0" encoding="UTF-8"?>
<!DOCTYPE svg PUBLIC "-//W3C//DTD SVG 1.1//EN" "http://www.w3.org/Graphics/SVG/1.1/DTD/svg11.dtd">
<!-- Creator: CorelDRAW -->
<svg xmlns="http://www.w3.org/2000/svg" xml:space="preserve" width="19.4194mm" height="16.1133mm" version="1.1" style="shape-rendering:geometricPrecision; text-rendering:geometricPrecision; image-rendering:optimizeQuality; fill-rule:evenodd; clip-rule:evenodd"
viewBox="0 0 3908.64 3243.2"
 xmlns:xlink="http://www.w3.org/1999/xlink"
 xmlns:xodm="http://www.corel.com/coreldraw/odm/2003">
 <defs>
  <style type="text/css">
   <![CDATA[
    .fil0 {fill:#FEFEFE;fill-rule:nonzero}
   ]]>
  </style>
 </defs>
 <g id="Camada_x0020_1">
  <metadata id="CorelCorpID_0Corel-Layer"/>
  <path class="fil0" d="M1208.25 1168.02c0,-198.16 53.42,-156.43 -376.99,-156.43 -235.81,0 -428.72,192.86 -428.72,428.72 0,174.93 -15.86,316.5 125.92,458.28 164.82,164.82 381.54,125.92 639.33,125.92 90.98,0 -10.06,-196.89 80.91,-196.89l321.64 0c22.28,0 40.46,18.18 40.46,40.46l0 518.52c0,22.28 -18.18,40.46 -40.46,40.46l-739.08 0c-458.06,0 -831.27,-373.2 -831.27,-831.27 0,-284.36 7.25,-506.29 243.86,-742.89 150.51,-150.51 358.37,-243.86 587.4,-243.86l739.08 0c22.28,0 40.46,18.18 40.46,40.46l0 518.52c0,22.28 -18.18,40.46 -40.46,40.46l-321.64 0c-22.28,0 -40.46,-18.18 -40.46,-40.46zm1795.63 675.42c140.11,-140.13 72.86,-148.38 377.19,155.95 166.74,166.74 166.8,439.5 0,606.3 -123.7,123.7 -212.65,235.01 -413.1,235.01 -233.28,0 -358.75,-180.79 -541.11,-363.04 -64.35,-64.31 146.35,-132.08 82,-196.42l-227.44 -227.44c-15.74,-15.74 -41.44,-15.74 -57.2,0l-366.66 366.66c-15.74,15.76 -15.74,41.46 0,57.2l522.61 522.61c323.87,323.89 851.61,323.93 1175.59,0 201.07,-201.03 352.88,-363.06 352.88,-697.72 0,-212.87 -80.97,-425.86 -242.92,-587.8l-522.61 -522.61c-15.76,-15.76 -41.46,-15.76 -57.22,0l-366.64 366.66c-15.76,15.74 -15.76,41.44 0,57.2l227.42 227.44c15.76,15.74 41.46,15.74 57.22,0zm132.78 -1113.47c186.74,-65.7 286.86,217.82 99.97,283.92l-418.27 148.56c-186.54,65.98 -287.1,-217.72 -99.97,-283.84l418.27 -148.64zm-676.75 -526.86c93.59,-174.42 358.71,-32.59 265.26,142.26l-208.72 391.74c-93.25,174.49 -358.79,32.79 -265.22,-142.22l208.68 -391.78zm-816.97 -7.53c-60.44,-188.53 225.77,-280.68 286.6,-91.96l136.77 422.27c60.7,188.27 -225.67,280.84 -286.56,91.96l-136.81 -422.27z"/>
 </g>
</svg>
