<?xml version="1.0" encoding="UTF-8"?>
<!DOCTYPE svg PUBLIC "-//W3C//DTD SVG 1.1//EN" "http://www.w3.org/Graphics/SVG/1.1/DTD/svg11.dtd">
<!-- Creator: CorelDRAW -->
<svg xmlns="http://www.w3.org/2000/svg" xml:space="preserve" width="11.3316mm" height="13.7359mm" version="1.1" style="shape-rendering:geometricPrecision; text-rendering:geometricPrecision; image-rendering:optimizeQuality; fill-rule:evenodd; clip-rule:evenodd"
viewBox="0 0 63.16 76.56"
 xmlns:xlink="http://www.w3.org/1999/xlink"
 xmlns:xodm="http://www.corel.com/coreldraw/odm/2003">
 <defs>
  <style type="text/css">
   <![CDATA[
    .str0 {stroke:#6699FF;stroke-width:1.11;stroke-miterlimit:22.9256}
    .str1 {stroke:#FF0066;stroke-width:1.11;stroke-miterlimit:22.9256}
    .fil1 {fill:none}
    .fil0 {fill:white}
   ]]>
  </style>
 </defs>
 <g id="Camada_x0020_1">
  <metadata id="CorelCorpID_0Corel-Layer"/>
  <path class="fil0" d="M6.23 0l54.55 0c1.31,0 2.38,1.07 2.38,2.38l0 71.2c0,1.64 -1.34,2.98 -2.98,2.98l-57.93 0c-1.24,0 -2.25,-1.01 -2.25,-2.25l0 -67.12 0 -0.96 0 -0.16 0 -0 0.01 -0.16 0 -0 0.01 -0.15 0 -0 0.01 -0.15 0 -0.01 0.02 -0.15 0 -0.01 0.02 -0.15 0 -0.01 0.02 -0.14 0 -0.01 0.03 -0.14 0 -0.01 0.03 -0.14 0 -0.01 0.03 -0.13 0 -0.02 0.04 -0.13 0 -0.02 0.04 -0.13 0.01 -0.02 0.04 -0.13 0.01 -0.02 0.04 -0.12 0.01 -0.02 0.05 -0.12 0.01 -0.02 0.05 -0.12 0.01 -0.02 0.05 -0.12 0.01 -0.02 0.05 -0.11 0.01 -0.02 0.05 -0.11 0.06 -0.11 0.01 -0.03 0.01 -0.03 0.06 -0.1 0 -0 0.05 -0.09 0.02 -0.04 0.02 -0.03 0.06 -0.1 0.06 -0.1 0.02 -0.03 0.02 -0.03 0.06 -0.09 0.02 -0.03 0.07 -0.09 0.01 -0.01 0.07 -0.09 0.01 -0.02 0.03 -0.03 0.07 -0.08c0.09,-0.11 0.19,-0.23 0.29,-0.33l0 -0c0.07,-0.07 0.14,-0.14 0.21,-0.21l0 -0 0.04 -0.03 0.07 -0.07 0.01 -0.01c0.1,-0.09 0.21,-0.19 0.32,-0.27l0.01 -0.01 0.04 -0.03 0.07 -0.06 0.01 -0.01c0.08,-0.06 0.15,-0.11 0.23,-0.17l0 -0c0.16,-0.11 0.33,-0.22 0.5,-0.31l0.01 -0.01c0.13,-0.07 0.25,-0.14 0.39,-0.2l0.02 -0.01 0.13 -0.06 0 0c0.32,-0.14 0.65,-0.25 0.99,-0.34l0.02 -0c0.34,-0.08 0.7,-0.14 1.06,-0.16l0.01 -0c0.1,-0.01 0.2,-0.01 0.31,-0.01l0.1 -0z"/>
  <line class="fil1 str0" x1="11.6" y1="34.4" x2="51.56" y2= "34.4" />
  <line class="fil1 str0" x1="11.6" y1="44.67" x2="51.56" y2= "44.67" />
  <line class="fil1 str0" x1="11.6" y1="54.95" x2="51.56" y2= "54.95" />
  <line class="fil1 str0" x1="11.6" y1="65.22" x2="51.56" y2= "65.22" />
  <polyline class="fil1 str1" points="10.27,27.72 11.44,20.46 12.59,25.24 16.93,25.24 18.02,12.03 21.07,26.2 52.89,26.2 "/>
 </g>
</svg>
