<?xml version="1.0" encoding="UTF-8"?>
<!DOCTYPE svg PUBLIC "-//W3C//DTD SVG 1.1//EN" "http://www.w3.org/Graphics/SVG/1.1/DTD/svg11.dtd">
<!-- Creator: CorelDRAW -->
<svg xmlns="http://www.w3.org/2000/svg" xml:space="preserve" width="26.2725mm" height="13.793mm" version="1.1" style="shape-rendering:geometricPrecision; text-rendering:geometricPrecision; image-rendering:optimizeQuality; fill-rule:evenodd; clip-rule:evenodd"
viewBox="0 0 867.13 455.24"
 xmlns:xlink="http://www.w3.org/1999/xlink"
 xmlns:xodm="http://www.corel.com/coreldraw/odm/2003"
 data-name="Layer 1">
 <defs>
  <style type="text/css">
   <![CDATA[
    .str0 {stroke:#FEFEFE;stroke-width:33.01;stroke-miterlimit:22.9256}
    .fil1 {fill:none}
    .fil2 {fill:white}
    .fil0 {fill:#FEFEFE;fill-rule:nonzero}
   ]]>
  </style>
 </defs>
 <g id="Camada_x0020_1">
  <metadata id="CorelCorpID_0Corel-Layer"/>
  <g id="worker.svg">
   <path class="fil0" d="M812.4 373.45c3.07,0 5.55,-2.49 5.55,-5.55l0 -5.57c0,-3.06 -2.49,-5.55 -5.55,-5.55 -3.07,0 -5.55,2.49 -5.55,5.55l0 5.57c0,3.06 2.49,5.55 5.55,5.55l0 0z"/>
   <path class="fil0" d="M675.32 47.3c-12.29,16.81 -19.36,36.93 -20.26,57.75l-6.86 -0c-3.06,0 -5.55,2.49 -5.55,5.55l0 23.58c0,3.06 2.49,5.55 5.55,5.55l11.25 0 0.66 9.55c-6.75,2.35 -11.84,7.98 -13.5,14.93 -0.5,2.05 -0.76,4.15 -0.76,6.26 0,11.04 6.88,20.91 17.24,24.71 1.47,30.17 18.47,57.47 44.92,72.06l0 20.04 -7.61 3.25c-22.15,-10.6 -43.33,-23.51 -62.99,-38.21 -0.95,-0.72 -2.12,-1.11 -3.32,-1.11 -1.2,0 -2.37,0.39 -3.33,1.11 -23.72,17.84 -49.72,32.85 -76.99,44.56l-0.52 0.22c-2.01,0.88 -3.33,2.88 -3.33,5.1 0,0 0,0 0,0l0 56.96c0,29.61 14.14,55.61 40.9,75.2 12.26,8.96 25.91,15.93 40.36,20.63 0.5,0.16 1.03,0.23 1.55,0.23 0.51,0 1.02,-0.07 1.51,-0.21 14.88,-4.66 28.95,-11.63 41.68,-20.6 5.47,-3.84 10.66,-8.16 15.4,-12.86l170.24 0c3.07,0 5.55,-2.49 5.55,-5.55l0 -68.14c0,-0.15 -0.01,-0.31 -0.02,-0.46 -1.48,-17.02 -11.67,-32.08 -26.93,-39.76 -0.1,-0.05 -0.2,-0.09 -0.3,-0.14l-47.41 -20.23 0 -20.27c26.22,-14.66 43.05,-41.84 44.49,-71.85 10.34,-3.82 17.2,-13.67 17.2,-24.69 0,-2.11 -0.26,-4.21 -0.76,-6.25 -1.65,-6.93 -6.72,-12.55 -13.44,-14.91l0.66 -9.57 11.66 0c3.07,0 5.55,-2.49 5.55,-5.55l0 -23.58c0,-3.07 -2.49,-5.55 -5.55,-5.55l-6.85 0c-0.87,-20.85 -7.94,-41 -20.28,-57.84 -11.71,-15.98 -28.16,-27.97 -46.96,-34.23l0.71 -6.86c0.01,-0.19 0.02,-0.38 0.02,-0.57 0,-3.06 -2.48,-5.55 -5.54,-5.55l-46.3 0c0,0 0,0 0,0 -3.06,0 -5.55,2.49 -5.55,5.55 0,0.19 0.01,0.38 0.03,0.57l0.71 6.86c-18.83,6.28 -35.27,18.3 -46.97,34.32l0 0zm133.36 294.63l0 -35.66 7.45 3.18 0 32.48 -7.45 0zm16.73 11.1l0 57.43 -124.39 0c11.18,-14.65 17.25,-32.59 17.25,-51.03 0,-0.08 0,-0.18 0,-0.27l0 -6.14 107.14 0zm-155.63 72.15c-11.35,7.97 -23.86,14.28 -37.02,18.68 -12.59,-4.39 -24.56,-10.62 -35.38,-18.44 -24.13,-17.66 -36.36,-39.95 -36.36,-66.24l0 -53.31c25.79,-11.3 50.38,-25.53 73.06,-42.16 22.72,16.64 47.31,30.87 73.07,42.17l0 53.32c0,26.16 -12.58,48.37 -37.39,66l0.01 -0.01zm186.24 -77.06l0 62.35 -19.51 0 0 -62.98c0,-3.07 -2.49,-5.55 -5.55,-5.55l-3.72 0 0 -27.74 8.13 3.47c11.65,5.93 19.46,17.44 20.66,30.46l0 0zm-58.45 -46.59l0 40.4 -79.3 0 0 -39.71c-0,-1.28 -0.45,-2.52 -1.26,-3.51 10.56,4.25 21.85,6.44 33.23,6.44 12.75,0 25.39,-2.76 36.98,-8.05l10.35 4.42zm-16.21 -13.97c-9.81,4.27 -20.42,6.49 -31.12,6.49 -10.7,0 -21.31,-2.21 -31.13,-6.49l0 -15.17c9.87,3.74 20.36,5.68 30.92,5.68 10.7,0 21.35,-1.99 31.34,-5.84l-0 15.33zm61.26 -120.71c0.29,1.18 0.44,2.4 0.44,3.61 0,7.36 -5.27,13.67 -12.52,14.97 -2.65,0.47 -4.58,2.77 -4.58,5.47l0 0.13c0,41.93 -34,75.92 -75.93,75.92 -41.93,0 -75.93,-34 -75.93,-75.92l0 -0.13c0,-2.7 -1.94,-5 -4.59,-5.47 -7.26,-1.29 -12.56,-7.6 -12.56,-14.98 0,-1.22 0.15,-2.43 0.44,-3.61 0.7,-3.11 2.89,-5.68 5.85,-6.87 1.04,1.24 2.32,2.27 3.76,3.01l9.77 5.01c1.02,0.52 2.15,0.8 3.29,0.8 3.77,0 6.9,-2.89 7.2,-6.65l1.79 -22.42 119.45 0c0.9,3.9 1.98,7.76 3.24,11.55l4.92 14.75c0.77,2.34 2.69,4.12 5.07,4.72 0.59,0.15 1.19,0.22 1.8,0.22 1.83,0 3.58,-0.7 4.91,-1.94l6.86 -6.4c0.76,-0.72 1.45,-1.53 2.03,-2.4 2.69,1.28 4.64,3.72 5.29,6.62l0 0zm-172.04 -27.12l7.34 0 -1.26 15.73 -4.58 -2.35c-0.37,-0.19 -0.61,-0.56 -0.64,-0.97l-0.85 -12.4zm158.02 12.92c-0.05,0.71 -0.36,1.37 -0.88,1.85l-2.45 2.28 -3.01 -9.02c-0.88,-2.64 -1.66,-5.33 -2.35,-8.03l9.57 0 -0.89 12.92zm18.14 -24.02l-31.32 0c-0.79,-0.41 -1.67,-0.63 -2.56,-0.63 -0.89,0 -1.77,0.22 -2.56,0.63l-126.44 0c-0.03,0 -0.06,0 -0.09,0l-30.03 0 0 -12.48 192.99 0 0 12.48zm-117.03 -106.27c2.43,-0.64 4.13,-2.85 4.13,-5.36 0,-0.19 -0.01,-0.38 -0.03,-0.57l-0.56 -5.32 33.99 0 -0.56 5.32c-0.02,0.19 -0.03,0.38 -0.03,0.57 0,2.51 1.7,4.72 4.13,5.36 4.24,1.13 8.39,2.63 12.38,4.46l0 8.68c-0.01,20.61 -12.71,39.12 -31.95,46.53 -20.24,-6.81 -33.88,-25.79 -33.88,-47.15 0,-0.02 0,-0.06 0,-0.08l0 -7.97c3.98,-1.83 8.14,-3.33 12.37,-4.46l0 -0zm-23.48 10.63l0 1.8c0,0.04 0,0.08 0,0.11 0,26.38 17.02,49.77 42.11,57.87l1.26 0.41c0.55,0.17 1.13,0.27 1.72,0.27 0.61,0 1.22,-0.1 1.81,-0.3 24.6,-8.47 41.14,-31.63 41.14,-57.65l0 -2.52c8.49,5.6 15.94,12.68 21.98,20.86 10.92,14.91 17.22,32.75 18.08,51.21l-168.15 0.01c0.89,-18.45 7.18,-36.25 18.07,-51.15 6.05,-8.19 13.51,-15.29 21.99,-20.91l0 0z"/>
   <path class="fil0" d="M740.39 59.81l21.87 0c3.07,0 5.55,-2.49 5.55,-5.55 0,-3.07 -2.49,-5.55 -5.55,-5.55l-21.87 0c-3.07,0 -5.55,2.49 -5.55,5.55 0,3.07 2.49,5.55 5.55,5.55z"/>
   <path class="fil0" d="M740.39 39.65l21.87 0c3.07,0 5.55,-2.49 5.55,-5.55 0,-3.07 -2.49,-5.55 -5.55,-5.55l-21.87 0c-3.07,0 -5.55,2.49 -5.55,5.55 0,3.07 2.49,5.55 5.55,5.55z"/>
   <path class="fil0" d="M664.39 328.73l-40.48 37.07 -19.78 -21.45c-1.05,-1.14 -2.53,-1.79 -4.08,-1.79 -3.07,0 -5.55,2.49 -5.55,5.55 0,1.4 0.52,2.74 1.47,3.77l23.53 25.51c1.05,1.14 2.53,1.79 4.08,1.79 1.39,0 2.73,-0.52 3.75,-1.46l44.56 -40.81c1.15,-1.05 1.8,-2.54 1.8,-4.09 0,-3.07 -2.49,-5.55 -5.55,-5.55 -1.39,0 -2.73,0.52 -3.75,1.46l0 0z"/>
  </g>
  <polyline class="fil1 str0" points="397.95,125.04 477.23,204.32 397.95,283.6 "/>
  <path class="fil2" d="M239.71 339.99c19.26,0 41.5,17.86 48.94,37.51 3.53,9.33 4.26,16.8 4.26,28.16l-53.2 0 0 -65.67zm-26.6 -0.83l13.3 0 0 66.5 -13.3 0 0 -66.5zm-106.41 0l13.3 0c0,19.03 15.5,33.25 30.76,33.25l4.99 0c15.26,0 30.76,-14.22 30.76,-33.25l13.3 0 0 66.5 -93.1 0 0 -66.5zm-26.6 0l13.3 0 0 66.5 -13.3 0 0 -66.5zm-66.5 63.18c0,-18.79 4.87,-29.34 14.95,-42.4 6.23,-8.07 24.13,-19.94 38.25,-19.94l0 65.67 -53.2 0 0 -3.32zm119.7 -78.14c12.58,1.05 9.11,1.66 24.94,1.66 6.37,0 9.73,-1.23 14.96,-1.66 0,9.64 0.86,18.13 -2.81,24.62 -1.76,3.12 -3.6,5 -6.46,6.85 -10.38,6.7 -23.39,2.13 -27.9,-6.77 -3.55,-7.01 -2.73,-14.68 -2.73,-24.7zm-66.5 -102.25l0 -49.05 172.9 0c0,27.99 2.86,60.86 -6.76,86.35 -9.01,23.87 -34.06,45.13 -59.8,50.76 -56.52,12.37 -106.35,-28.31 -106.35,-88.06zm186.2 4.16l0 -26.6c16.68,3.88 14.64,17.12 9.23,22.53 -2.39,2.39 -5.4,3.18 -9.23,4.07zm-199.51 -26.6l0 26.6c-7.05,-1.64 -13.14,-5.08 -13.13,-13.3 0,-3.01 1.88,-7.52 3.74,-9.39 2.43,-2.43 5.71,-3.06 9.38,-3.91zm-19.95 -47.38c0,-7.7 -1.92,-19.12 7.48,-19.12l224.44 0c9.4,0 7.48,11.42 7.48,19.12 0,4.11 -3.37,7.48 -7.48,7.48l-224.44 0c-4.11,0 -7.48,-3.37 -7.48,-7.48zm146.3 -110.56c5.6,0 8.37,2.09 13.3,2.5 0,12.1 -0.29,24.56 -0.04,36.62 0.43,20.16 26.6,25.24 36.16,11.14 4.57,-6.75 3.78,-9.12 3.78,-19.49 8,5.36 19.12,33.24 19.12,47.38l-72.32 0 0 -78.14zm-39.9 -5.82c0,-21.19 26.6,-20.51 26.6,0l0 83.96 -26.6 0 0 -83.96zm-66.5 36.58c0,10.05 -0.8,12.44 3.46,18.99 9.72,14.97 35.62,9.21 36.47,-9.82 0.53,-11.92 -0.03,-25.34 -0.03,-37.43 4.93,-0.41 7.7,-2.5 13.3,-2.5l0 78.14 -72.32 0c0,-14.13 11.09,-42.01 19.12,-47.38zm133 -22.44c16.35,10.95 13.3,2.87 13.3,29.09 0,7.88 -9.9,10.24 -12.77,2.8 -1.05,-2.73 -0.54,-7.01 -0.53,-10.27 0.02,-7.21 0,-14.41 0,-21.62zm-119.7 29.09c0,-23.35 -1.9,-19.27 6.15,-24.61 2.65,-1.76 4.74,-2.87 7.16,-4.48 0,4.24 0.59,28.97 -0.53,31.89 -2.86,7.44 -12.77,5.08 -12.77,-2.8zm40.73 -51.54c-10.32,0 -25.61,6.59 -34.09,10.8 -19.81,9.82 -33.87,26.36 -43.77,46 -3.88,7.7 -9.42,24.5 -9.42,35.47 -11.66,0 -19.95,9.12 -19.95,18.29l0 16.62c0,9.15 9.14,18.29 18.29,18.29l14.96 0 0 13.3c-25.22,0 -34.52,29.41 -19.36,45.13 5.7,5.9 11.69,8.07 20.19,8.07 0.23,10.39 8.49,30.89 14.61,40.25 11.07,16.9 32.29,36.01 51.06,40.39l0 5.82 -50.71 0c-18.11,0 -36.01,9.82 -47.59,21.4 -11.58,11.58 -21.41,29.47 -21.41,47.59 0,12.65 -2.44,24.11 6.65,24.11l292.61 0c9.09,0 6.65,-11.46 6.65,-24.11 0,-25.74 -18.27,-50.23 -41.28,-61.8 -7.17,-3.6 -17.35,-7.2 -27.71,-7.2l-50.71 0 0 -5.82c7.16,-1.67 18.88,-8.38 24.24,-12.34 17.54,-12.95 23.88,-21.73 33.12,-40.03 2.89,-5.72 8.13,-20.22 8.31,-28.27 16.25,0 27.43,-12.52 27.43,-24.11 0,-8.87 -0.98,-15.01 -8.07,-21.85 -4.53,-4.37 -9.9,-7.24 -18.53,-7.24l0 -13.3 14.96 0c9.15,0 18.29,-9.14 18.29,-18.29 0,-11.21 1.84,-22.58 -6.03,-29.71 -3.36,-3.04 -7.74,-5.2 -13.91,-5.2 -0.47,-20.99 -13.19,-47.82 -27.64,-62.14 -14.03,-13.91 -39.03,-30.13 -59.65,-30.13 -0.89,-10.69 -13.42,-20.78 -23.28,-20.78 -7.88,0 -13.56,0.59 -20.16,6.44 -3.54,3.14 -7.61,8.51 -8.1,14.35z"/>
 </g>
</svg>
