<?xml version="1.0" encoding="UTF-8"?>
<!DOCTYPE svg PUBLIC "-//W3C//DTD SVG 1.1//EN" "http://www.w3.org/Graphics/SVG/1.1/DTD/svg11.dtd">
<!-- Creator: CorelDRAW -->
<svg xmlns="http://www.w3.org/2000/svg" xml:space="preserve" width="15.3371mm" height="12.578mm" version="1.1" style="shape-rendering:geometricPrecision; text-rendering:geometricPrecision; image-rendering:optimizeQuality; fill-rule:evenodd; clip-rule:evenodd"
viewBox="0 0 152.75 125.27"
 xmlns:xlink="http://www.w3.org/1999/xlink"
 xmlns:xodm="http://www.corel.com/coreldraw/odm/2003">
 <defs>
  <style type="text/css">
   <![CDATA[
    .fil0 {fill:#FEFEFE}
   ]]>
  </style>
 </defs>
 <g id="Camada_x0020_1">
  <metadata id="CorelCorpID_0Corel-Layer"/>
  <path class="fil0" d="M112.41 62.63l6.68 0c0,37.94 -46.02,57.09 -72.91,30.2l-14.08 14.08c39.28,39.28 106.91,11.31 106.91,-44.28 5.26,0 10.73,0.93 13.09,-3.62 1.17,-2.26 0.75,-4.75 -1.11,-6.61l-16.63 -16.71c-2.82,-2.84 -7.8,-2.84 -10.62,0l-16.63 16.71c-4,4.02 -0.72,10.23 5.31,10.23zm-98.66 0c0,-55.59 67.63,-83.57 106.91,-44.28l-14.08 14.08c-26.89,-26.89 -72.91,-7.74 -72.91,30.2 5.26,0 10.73,-0.93 13.09,3.62 1.17,2.25 0.75,4.75 -1.11,6.61l-16.63 16.71c-2.82,2.84 -7.8,2.84 -10.62,0l-16.63 -16.71c-4,-4.02 -0.72,-10.23 5.31,-10.23l6.68 0z"/>
 </g>
</svg>
