<?xml version="1.0" encoding="UTF-8"?>
<!DOCTYPE svg PUBLIC "-//W3C//DTD SVG 1.1//EN" "http://www.w3.org/Graphics/SVG/1.1/DTD/svg11.dtd">
<!-- Creator: CorelDRAW -->
<svg xmlns="http://www.w3.org/2000/svg" xml:space="preserve" width="9.3949mm" height="12.9631mm" version="1.1" style="shape-rendering:geometricPrecision; text-rendering:geometricPrecision; image-rendering:optimizeQuality; fill-rule:evenodd; clip-rule:evenodd"
viewBox="0 0 47.58 65.64"
 xmlns:xlink="http://www.w3.org/1999/xlink"
 xmlns:xodm="http://www.corel.com/coreldraw/odm/2003">
 <defs>
  <style type="text/css">
   <![CDATA[
    .fil0 {fill:#FEFEFE}
   ]]>
  </style>
 </defs>
 <g id="Camada_x0020_1">
  <metadata id="CorelCorpID_0Corel-Layer"/>
  <path class="fil0" d="M32.97 0c8.36,0 8.36,12.69 0,12.69 -8.36,0 -8.36,-12.69 0,-12.69zm-17.88 34.03l0.08 2.21 -1.28 -0.24 0.01 -1.42c-1.14,0.26 -2.35,-0.15 -3.1,-1.05 -0.84,0.33 -0.92,1 -1.05,1.69l-1.28 -0.24c0.21,-1.14 0.49,-2.05 1.71,-2.6 -0.51,-1.75 1.13,-4.24 2.15,-6.4l2.32 -4.92 10.41 -6.41c3.1,-1.86 7.06,-1.11 9.27,1.76l12.61 16.39c2.23,2.96 -1.92,7.01 -4.93,3.71l-7.55 -8.26 -1.84 10.96 9.63 21.67c1.68,3.84 -4.27,6.84 -6.27,3l-12.57 -24.47c-2.47,-4.85 -1.42,-9.14 -0.85,-14.52 -3.33,1.61 -2.13,0.55 -4.85,5.19l-2.61 3.97zm-10.51 1.11l14.22 2.68c1.35,0.25 2.24,1.56 1.99,2.91l-1.63 8.65c-0.25,1.35 -1.56,2.24 -2.91,1.99l-14.22 -2.68c-1.35,-0.25 -2.24,-1.56 -1.99,-2.91l1.63 -8.65c0.25,-1.35 1.56,-2.24 2.91,-1.99zm17.61 14.82l-6.63 10.01c-2.2,3.31 3.22,7.17 5.6,3.96l7.51 -10.12 -5.13 -9.98 -0.73 5.18 -0.63 0.96z"/>
 </g>
</svg>
