<?xml version="1.0" encoding="UTF-8"?>
<!DOCTYPE svg PUBLIC "-//W3C//DTD SVG 1.1//EN" "http://www.w3.org/Graphics/SVG/1.1/DTD/svg11.dtd">
<!-- Creator: CorelDRAW -->
<svg xmlns="http://www.w3.org/2000/svg" xml:space="preserve" width="42.9994mm" height="39.1458mm" version="1.1" style="shape-rendering:geometricPrecision; text-rendering:geometricPrecision; image-rendering:optimizeQuality; fill-rule:evenodd; clip-rule:evenodd"
viewBox="0 0 415.58 378.34"
 xmlns:xlink="http://www.w3.org/1999/xlink"
 xmlns:xodm="http://www.corel.com/coreldraw/odm/2003">
 <defs>
  <style type="text/css">
   <![CDATA[
    .fil3 {fill:#0086FF;fill-rule:nonzero}
    .fil4 {fill:#00A759;fill-rule:nonzero}
    .fil0 {fill:#666666;fill-rule:nonzero}
    .fil1 {fill:#990099;fill-rule:nonzero}
    .fil2 {fill:#FF0066;fill-rule:nonzero}
   ]]>
  </style>
 </defs>
 <g id="Camada_x0020_1">
  <metadata id="CorelCorpID_0Corel-Layer"/>
  <g id="_1661165572848">
   <path class="fil0" d="M-0 148.52c4.92,-49.29 26.98,-93.54 60.13,-126.69 7.95,-7.95 16.53,-15.25 25.67,-21.84l9.93 17.2c-7.67,5.66 -14.91,11.88 -21.63,18.6 -29.57,29.57 -49.39,68.89 -54.23,112.72l-19.86 0z"/>
   <path class="fil1" d="M85.79 339.01c-9.14,-6.59 -17.72,-13.9 -25.67,-21.84 -33.15,-33.15 -55.21,-77.39 -60.13,-126.69l19.86 0c4.84,43.84 24.66,83.16 54.23,112.72 6.73,6.73 13.96,12.95 21.63,18.6l-9.93 17.2z"/>
   <path class="fil2" d="M293.6 359.94c-26.18,11.82 -55.22,18.4 -85.81,18.4 -30.58,0 -59.63,-6.58 -85.81,-18.4l9.93 -17.2c23.23,10.19 48.89,15.84 75.88,15.84 26.99,0 52.66,-5.65 75.88,-15.84l9.93 17.2z"/>
   <path class="fil3" d="M415.58 190.49c-4.92,49.29 -26.98,93.53 -60.13,126.69 -7.95,7.95 -16.53,15.25 -25.66,21.84l-9.93 -17.2c7.67,-5.65 14.91,-11.88 21.63,-18.6 29.56,-29.57 49.39,-68.89 54.23,-112.72l19.86 0z"/>
   <path class="fil4" d="M329.8 0c9.14,6.59 17.72,13.9 25.66,21.84 33.15,33.15 55.21,77.4 60.13,126.69l-19.86 0c-4.84,-43.83 -24.66,-83.16 -54.23,-112.72 -6.73,-6.73 -13.96,-12.95 -21.63,-18.6l9.93 -17.2z"/>
  </g>
 </g>
</svg>
